<svg xmlns="http://www.w3.org/2000/svg" height="800" width="1200" version="1.0" viewBox="-24.30627 -9.079625 210.65434 54.47775"><path d="M69.3949.0082c10.026 0 18.154 8.128 18.154 18.1551 0 10.027-8.128 18.1551-18.154 18.1551-10.027 0-18.1552-8.128-18.1552-18.155C51.2397 8.1362 59.3678.0081 69.395.0081zm0 6.656c-6.352 0-11.5002 5.1482-11.5002 11.4991 0 6.351 5.1482 11.5001 11.5002 11.5001 6.351 0 11.499-5.1491 11.499-11.5 0-6.351-5.148-11.4992-11.499-11.4992z" fill="#00447c" fill-rule="evenodd"/><path d="M115.6922 6.6069c1.8242 0 3.3035-1.4792 3.3035-3.3035 0-1.8242-1.4782-3.3034-3.3035-3.3034H86.1414c-1.8242 0-3.3024 1.4792-3.3024 3.3034 0 1.8243 1.4782 3.3035 3.3024 3.3035h5.486v26.2627c0 1.8243 1.4782 3.3035 3.3034 3.3035s3.3034-1.4782 3.3034-3.3035V6.607h4.7438v26.2627c0 1.8243 1.4793 3.3035 3.3045 3.3035 1.8232 0 3.3024-1.4782 3.3024-3.3035V6.607z" fill="#00447c" fill-rule="evenodd"/><path d="M142.5989 7.9664c-1.6154-.865-3.4242-1.3022-5.3836-1.3022-6.351 0-11.5001 5.1482-11.5001 11.4991 0 6.047 4.668 11.0047 10.5972 11.4653l19.405-27.6365c.5109-1.163 1.6697-1.9767 3.021-1.9767 1.8242 0 3.3034 1.4792 3.3034 3.3034v29.5498c0 1.8242-1.4782 3.3035-3.3034 3.3035-1.8253 0-3.3035-1.4782-3.3035-3.3035V13.6744l-.0195.2662-14.1863 20.3458c-1.039 1.5223-2.9758 2.0065-4.0138 2.03-9.1313 0-16.6647-6.7471-17.9433-15.5232v12.0744c0 1.8242-1.4782 3.3034-3.3034 3.3034s-3.3035-1.4782-3.3035-3.3034V12.5924c0-1.8242 1.4783-3.3034 3.3035-3.3034 1.8252 0 3.3034 1.4792 3.3034 3.3034v2.939c1.2786-8.776 8.812-15.5232 17.9433-15.5232 3.2072 0 6.2588.8906 8.8743 2.3504.8968.5906 1.4874 1.6061 1.4874 2.7598 0 1.8243-1.4792 3.3035-3.3034 3.3035a3.2963 3.2963 0 01-1.6748-.4555zM54.662 30.7885L44.2315 17.9023 54.2914 5.4747c1.1485-1.4178.9295-3.497-.4883-4.6455-1.4178-1.1486-3.498-.9295-4.6455.4883l-9.1764 11.3353-8.9737-11.0866C30.423.6378 29.3952.0164 28.217.0164c-1.8242 0-3.3035 1.4792-3.3035 3.3034l-.003 12.3877c0 2.6073-2.114 4.7223-4.7213 4.7223-2.6084 0-4.7223-2.115-4.7223-4.7223l-.0031-12.3877c0-1.8242-1.4792-3.3034-3.3035-3.3034-1.8242 0-3.3034 1.4792-3.3034 3.3034l.002 12.3877c0 6.2558 5.0724 11.3281 11.3292 11.3281s11.3281-5.0723 11.3281-11.3281l.001-3.0086 4.2135 5.2044-10.4314 12.8852c-1.1475 1.4178-.9285 3.498.4894 4.6455 1.4178 1.1486 3.4979.9295 4.6455-.4883l9.5469-11.794 9.548 11.794c1.1475 1.4178 3.2276 1.6369 4.6454.4883 1.4178-1.1476 1.637-3.2287.4873-4.6455z" fill="#00447c" fill-rule="evenodd"/><path d="M20.1892 29.4812H6.6059V3.3198c0-1.8242-1.4782-3.3034-3.3035-3.3034C1.4772.0164 0 1.4946 0 3.3198v29.5498c0 1.8243 1.4782 3.3035 3.3034 3.3035.2488 0 .4904-.0328.7238-.085h16.163c1.8242 0 3.3035-1.4782 3.3035-3.3034 0-1.8253-1.4803-3.3035-3.3045-3.3035z" fill="#00447c" fill-rule="evenodd"/></svg>